<?xml version="1.0" encoding="utf-8"?>
<svg version="1.0" xmlns="http://www.w3.org/2000/svg" width="959.000000pt" height="634.000000pt" viewBox="0 0 959.000000 634.000000" preserveAspectRatio="xMidYMid meet">
  <g transform="translate(0.000000,634.000000) scale(0.100000,-0.100000)" fill="#000000" stroke="none">
    <path d="M4408 5078 l-3 -142 -255 -207 c-226 -182 -255 -210 -255 -235 0 -55 -18 -54 837 -54 469 0 797 4 811 9 28 11 43 43 30 64 -7 13 -321 272 -460 381 l-53 41 0 143 0 142 -50 0 -50 0 0 -161 0 -160 30 -27 c16 -15 110 -92 209 -172 99 -80 180 -148 180 -152 1 -5 -291 -8 -649 -8 -357 0 -650 2 -650 4 0 2 78 66 172 142 95 77 190 154 210 173 l38 33 0 164 0 164 -45 0 -44 0 -3 -142z" style="fill: rgb(255, 255, 255);"/>
    <path d="M3915 3880 l-339 -5 -13 -25 c-10 -19 -12 -126 -10 -468 2 -426 3 -444 21 -458 17 -12 192 -14 1162 -14 1025 0 1144 2 1158 16 14 14 16 70 16 473 0 371 -3 461 -13 470 -15 12 -1379 20 -1982 11z m303 -482 l2 -388 -285 0 -285 0 0 383 c0 211 3 387 7 390 4 4 131 6 282 5 l276 -3 3 -387z m930 325 l3 -63 -416 0 -415 0 0 65 0 65 413 -2 412 -3 3 -62z m662 -323 l0 -390 -280 0 -280 0 0 383 c0 211 3 387 7 390 3 4 129 7 280 7 l273 0 0 -390z m-660 -115 l0 -275 -415 0 -415 0 0 275 0 275 415 0 415 0 0 -275z" style="fill: rgb(255, 255, 255);"/>
    <path d="M4512 3438 c-17 -17 -17 -259 0 -276 17 -17 429 -17 446 0 8 8 12 53 12 134 0 98 -3 126 -16 138 -13 14 -48 16 -223 16 -148 0 -210 -3 -219 -12z m358 -143 l0 -56 -137 3 -138 3 -1 45 c0 25 1 48 3 53 2 4 65 7 139 7 l134 0 0 -55z" style="fill: rgb(255, 255, 255);"/>
    <path d="M7035 2608 c-15 -14 -28 -38 -31 -59 -5 -30 -1 -42 23 -69 70 -78 195 -12 163 86 -21 63 -104 86 -155 42z" style="fill: rgb(255, 0, 0);"/>
    <path d="M7380 2160 l0 -460 90 0 90 0 -2 458 -3 457 -87 3 -88 3 0 -461z" style="fill: rgb(255, 0, 0);"/>
    <path d="M3629 2595 c0 -5 -2 -209 -3 -452 l-2 -443 95 0 96 0 -3 204 c-1 113 1 207 5 209 5 3 67 -64 138 -148 72 -85 132 -154 135 -154 3 -1 63 67 134 149 70 83 132 150 137 150 5 0 9 -88 9 -205 l0 -205 95 0 95 0 0 450 c0 248 -2 450 -5 450 -3 0 -20 -17 -38 -37 -18 -21 -73 -83 -122 -138 -50 -55 -137 -153 -194 -217 -57 -65 -106 -118 -110 -118 -3 0 -42 42 -86 92 -44 51 -123 140 -175 198 -52 58 -119 132 -147 165 -29 33 -53 56 -54 50z" style="fill: rgb(255, 0, 0);"/>
    <path d="M5853 2590 c-64 -14 -149 -58 -179 -93 -40 -47 -54 -89 -54 -159 0 -78 24 -134 76 -176 58 -48 107 -67 249 -97 152 -32 172 -39 203 -67 47 -45 13 -116 -67 -138 -87 -24 -188 -5 -306 59 l-74 40 -48 -71 -47 -70 29 -24 c85 -67 239 -114 377 -114 157 0 270 56 324 160 27 53 26 182 -3 236 -44 83 -107 112 -356 169 -130 30 -169 52 -169 98 0 39 26 64 84 77 75 18 148 7 237 -36 42 -21 79 -38 82 -38 3 -1 29 29 57 66 l51 68 -44 30 c-81 55 -168 82 -280 86 -55 2 -119 -1 -142 -6z" style="fill: rgb(255, 0, 0);"/>
    <path d="M1917 2584 c-4 -4 -7 -205 -7 -446 l0 -438 95 0 95 0 0 143 0 143 45 44 c27 27 48 40 54 35 5 -6 50 -66 100 -135 50 -69 110 -149 132 -177 l40 -53 115 0 114 0 -87 118 c-48 64 -134 180 -191 256 l-104 139 150 151 c82 83 163 167 180 186 l32 35 -113 3 -112 3 -34 -38 c-34 -38 -142 -152 -255 -272 l-61 -64 -5 184 -5 184 -85 3 c-47 1 -89 0 -93 -4z" style="fill: rgb(255, 0, 0);"/>
    <path d="M6545 2550 c-4 -6 -6 -41 -5 -78 1 -37 1 -72 1 -79 -1 -6 -18 -13 -38 -15 l-38 -3 -3 -77 -3 -77 42 -3 42 -3 -2 -180 c-1 -99 2 -202 7 -228 18 -93 91 -132 232 -125 l65 3 3 73 3 72 -39 0 c-24 0 -49 8 -63 19 -23 19 -24 24 -27 195 l-3 176 71 0 72 0 -4 78 -3 77 -67 3 -68 3 0 89 0 90 -84 0 c-47 0 -88 -5 -91 -10z" style="fill: rgb(255, 0, 0);"/>
    <path d="M3000 2366 c-210 -61 -323 -280 -241 -468 101 -233 414 -291 595 -110 177 177 118 457 -119 562 -62 27 -172 35 -235 16z m176 -166 c108 -53 137 -205 57 -301 -36 -43 -74 -59 -139 -59 -108 0 -175 64 -182 175 -5 81 20 134 85 176 57 35 117 38 179 9z" style="fill: rgb(255, 0, 0);"/>
    <path d="M4948 2361 c-80 -26 -141 -79 -180 -159 -31 -62 -33 -73 -33 -172 0 -93 3 -112 27 -162 57 -122 155 -182 298 -182 73 0 91 5 203 62 4 2 7 -8 7 -22 l0 -26 90 0 90 0 -2 333 -3 332 -85 0 -85 0 -3 -28 c-2 -16 -6 -27 -10 -25 -116 60 -140 68 -197 67 -33 0 -86 -8 -117 -18z m243 -164 c66 -45 97 -121 83 -208 -19 -118 -153 -183 -270 -130 -129 58 -137 256 -15 338 27 18 48 23 101 23 53 0 74 -5 101 -23z" style="fill: rgb(255, 0, 0);"/>
    <path d="M7017 2364 c-4 -4 -7 -155 -7 -336 l0 -328 90 0 90 0 -2 333 -3 332 -80 3 c-45 1 -84 0 -88 -4z" style="fill: rgb(255, 0, 0);"/>
    <path d="M2790 1510 c0 -5 5 -10 10 -10 6 0 10 5 10 10 0 6 -4 10 -10 10 -5 0 -10 -4 -10 -10z" style="fill: rgb(255, 255, 255);"/>
    <path d="M2830 1510 c0 -5 5 -10 10 -10 6 0 10 5 10 10 0 6 -4 10 -10 10 -5 0 -10 -4 -10 -10z" style="fill: rgb(255, 255, 255);"/>
    <path d="M6030 1510 c0 -5 5 -10 10 -10 6 0 10 5 10 10 0 6 -4 10 -10 10 -5 0 -10 -4 -10 -10z" style="fill: rgb(255, 255, 255);"/>
    <path d="M6080 1510 c0 -5 5 -10 10 -10 6 0 10 5 10 10 0 6 -4 10 -10 10 -5 0 -10 -4 -10 -10z" style="fill: rgb(255, 255, 255);"/>
    <path d="M2536 1440 l-46 -43 0 37 c0 20 -4 36 -10 36 -6 0 -10 -33 -10 -80 0 -47 4 -80 10 -80 6 0 10 16 10 35 0 19 4 35 8 35 4 0 26 -18 47 -40 21 -22 44 -40 49 -40 6 0 -11 22 -37 48 l-48 49 41 37 c23 21 39 40 37 43 -3 3 -26 -14 -51 -37z" style="fill: rgb(255, 255, 255);"/>
    <path d="M3094 1468 c-48 -23 -57 -91 -18 -137 20 -25 34 -31 64 -31 23 0 43 6 51 17 12 15 12 16 -6 9 -42 -18 -61 -17 -88 4 -20 16 -27 30 -27 55 0 62 45 91 110 71 24 -7 24 -6 6 8 -22 18 -61 20 -92 4z" style="fill: rgb(255, 255, 255);"/>
    <path d="M3682 1393 l3 -88 53 -3 c31 -2 52 1 52 7 0 6 -20 11 -45 11 -43 0 -45 1 -45 30 0 28 3 30 34 30 19 0 38 5 41 10 4 6 -10 10 -34 10 -39 0 -41 2 -41 30 0 29 2 30 45 30 25 0 45 5 45 10 0 6 -25 10 -55 10 l-56 0 3 -87z" style="fill: rgb(255, 255, 255);"/>
    <path d="M3966 1473 c-10 -11 -7 -173 4 -173 6 0 10 31 10 73 l1 72 22 -26 c12 -14 37 -47 55 -73 18 -26 37 -44 42 -41 13 8 13 165 0 165 -6 0 -10 -31 -10 -72 l0 -72 -50 72 c-54 76 -63 85 -74 75z" style="fill: rgb(255, 255, 255);"/>
    <path d="M4796 1473 c-3 -3 -6 -45 -6 -92 0 -100 17 -101 22 -1 l3 64 49 -72 c48 -70 65 -85 67 -59 5 47 3 157 -3 157 -5 0 -8 -29 -8 -65 0 -36 -3 -65 -8 -65 -4 0 -27 30 -52 66 -48 70 -54 77 -64 67z" style="fill: rgb(255, 255, 255);"/>
    <path d="M5114 1467 c-3 -8 -4 -47 -2 -88 3 -73 3 -74 32 -77 69 -8 116 26 116 86 0 20 -7 45 -14 55 -25 32 -122 50 -132 24z m112 -33 c46 -45 11 -114 -58 -114 l-38 0 0 70 0 70 35 0 c25 0 44 -8 61 -26z" style="fill: rgb(255, 255, 255);"/>
    <path d="M5630 1388 c1 -71 3 -89 11 -75 6 10 9 41 7 68 -1 27 0 49 3 49 4 0 18 -27 32 -60 15 -33 30 -60 35 -60 5 0 19 26 32 58 34 84 40 84 40 2 1 -53 3 -70 10 -59 13 21 8 158 -5 162 -6 1 -25 -29 -44 -68 l-34 -70 -33 73 c-18 39 -38 72 -44 72 -6 0 -10 -35 -10 -92z" style="fill: rgb(255, 255, 255);"/>
    <path d="M6017 1469 c-30 -18 -49 -73 -36 -106 17 -46 39 -63 81 -63 54 0 88 35 88 90 0 72 -72 114 -133 79z m77 -10 c13 -7 30 -25 37 -41 28 -67 -47 -133 -106 -94 -47 31 -44 108 5 133 31 16 33 16 64 2z" style="fill: rgb(255, 255, 255);"/>
    <path d="M6327 1473 c-2 -5 -3 -44 -3 -88 1 -89 5 -93 72 -80 41 7 56 45 30 74 -12 13 -14 21 -7 26 18 11 12 54 -8 65 -23 12 -78 14 -84 3z m81 -37 c5 -22 -13 -36 -45 -36 -19 0 -23 5 -23 31 0 28 2 30 32 27 23 -2 34 -9 36 -22z m5 -67 c17 -28 1 -49 -38 -49 -32 0 -35 3 -35 28 0 16 3 32 7 36 12 12 55 2 66 -15z" style="fill: rgb(255, 255, 255);"/>
    <path d="M6614 1467 c-3 -8 -4 -47 -2 -88 l3 -74 53 -3 c31 -2 52 1 52 7 0 6 -20 11 -45 11 -43 0 -45 1 -45 30 0 27 3 30 33 30 17 0 39 5 47 10 11 7 2 10 -32 10 -47 0 -48 1 -48 30 0 29 2 30 45 30 25 0 45 5 45 10 0 16 -100 12 -106 -3z" style="fill: rgb(255, 255, 255);"/>
    <path d="M2760 1395 c5 -81 14 -95 62 -95 46 0 58 23 57 103 l-2 72 -7 -69 c-7 -68 -23 -96 -56 -96 -25 0 -44 44 -44 102 0 32 -3 58 -7 58 -5 0 -6 -34 -3 -75z" style="fill: rgb(255, 255, 255);"/>
    <path d="M3370 1384 c0 -54 4 -83 10 -79 6 3 10 22 10 41 0 34 0 34 45 34 45 0 45 0 45 -34 0 -19 5 -38 10 -41 6 -4 10 25 10 79 0 51 -4 86 -10 86 -5 0 -10 -16 -10 -35 0 -35 0 -35 -45 -35 -45 0 -45 0 -45 35 0 19 -4 35 -10 35 -6 0 -10 -35 -10 -86z" style="fill: rgb(255, 255, 255);"/>
    <path d="M4482 1399 c4 -78 19 -99 68 -99 44 0 60 28 60 103 0 38 -4 67 -10 67 -6 0 -10 -30 -10 -70 0 -58 -3 -71 -19 -80 -48 -25 -71 2 -71 86 0 40 -4 64 -11 64 -8 0 -10 -23 -7 -71z" style="fill: rgb(255, 255, 255);"/>
    <path d="M6892 1388 l3 -83 48 -3 c28 -2 47 1 47 7 0 6 -18 11 -40 11 l-40 0 0 75 c0 45 -4 75 -10 75 -7 0 -10 -30 -8 -82z" style="fill: rgb(255, 255, 255);"/>
  </g>
</svg>